# xmcd
#
# Track frame offsets: 
#        150
#        18622
#        38758
#        55328
#        77450
#        96338
#        125550
#        143434
#        167652
#        189751
#        206733
#        247393
#        272794
#
# Disc length: 4381 seconds
#
# Revision: 0
# Processed by: cddbd v1.5.2PL0 Copyright (c) Steve Scherf et al.
# Submitted via: ExactAudioCopy v0.99pb4
#
DISCID=b4111b0d
DTITLE=Footsteps - Further
DYEAR=2012
DGENRE=Bluesrock
TTITLE0=State Of Sun
TTITLE1=Come Rain Or Shine
TTITLE2=Trapped In The Blues
TTITLE3=Wasteland
TTITLE4=You Better Watch Out
TTITLE5=Thin Line
TTITLE6=Words Of Farewell
TTITLE7=Stong Breeze
TTITLE8=High Rise
TTITLE9=Space Girl
TTITLE10=Sweet Love's Gone
TTITLE11=Why Can't my Baby
TTITLE12=Footloose
EXTD=Produced by Footsteps\nRecorded, mixed, mastered and engineered b
EXTD=y Ulrich Oertel, 2012.\n\nContact:\ninfo@footsteps-band.de\n+49 1
EXTD=72 1696023\nwww.footsteps-band.de\nyoutube.com/footstepsinfo\nmys
EXTD=pace.com/footstepsinfo
EXTT0=The Shadows Disappear\nIt Still Hurts A Bit But I Can See Slear
EXTT1=When Purple Lights Are Turning Much Too Red\nSo Hard To Keep Up 
EXTT1=My Head
EXTT2=Ain't No Doctor Can Heal My Pain\nI Got Trapped In The Blues ...
EXTT2=Again
EXTT3=You Are Mumbling Words You Never Said Before\n\n\n
EXTT4=
EXTT5=
EXTT6=
EXTT7=
EXTT8=
EXTT9=
EXTT10=
EXTT11=
EXTT12=
PLAYORDER=
